<?xml version="1.0" encoding="UTF-8"?><svg id="Lag_2" xmlns="http://www.w3.org/2000/svg" viewBox="0 0 192.33 192.22"><defs><style>.cls-1{fill:#1b7b46;}.cls-2{fill:#74b847;}</style></defs><g id="Lag_1-2"><path class="cls-1" d="M92.88,121.77v30.37h6.01v-31.83c1.96,1.47,3.29,2.14,4.19,3.19,5.04,5.89,12.02,8.32,18.86,11.14,1.42,.59,3.2,2.59,3.22,3.96,.22,17.73,.14,35.46,.14,53.61h-57.91c-.14-.8-.43-1.74-.43-2.67-.02-16.59,.06-33.17-.06-49.76-.02-2.91,.99-4.12,3.63-5.45,7.47-3.77,14.62-8.16,22.34-12.56Z"/><path class="cls-2" d="M55.09,134.75c1.07-3.7,1.77-6.13,2.7-9.34H0v-58.21c12.55,0,24.95-.05,37.35,.08,1.08,.01,2.34,1.03,3.18,1.9,10.37,10.63,20.68,21.32,30.5,31.47-21.26-3.32-43.86-3.3-66.15,3.53,21.45,10.93,44.37,14.35,67.72,13.86-5.33,5.09-10.81,10.31-17.51,16.7Z"/><path class="cls-1" d="M192.33,67.02v57.98h-57.21c-.12,2.58-.22,4.73-.34,7.21-5.04-5.69-9.27-10.47-12.53-14.15,20.84,.22,43.77-3.22,66.55-13.87-23.77-6.91-46.7-6.51-68.87-3.23,10.39-10.5,21.05-21.32,31.79-32.04,.94-.93,2.46-1.8,3.72-1.81,12.09-.14,24.19-.08,36.89-.08Z"/><path class="cls-2" d="M99.83,0h25.05V53.08l33.74-14.27,1.11,1.53c-1.03,1.07-1.89,2.47-3.13,3.15-17.92,9.88-33.43,22.63-46.48,38.39-.86,1.03-2.09,1.76-3.9,2.38,5-28.57,2.54-56.33-6.38-84.27Z"/><path class="cls-2" d="M86.14,85.46c-15.13-18.06-32.87-32.7-53.27-44.28,12.53,.27,22.55,7.05,33.93,12.38V.22h25.68c-9.31,27.95-11.09,56.2-6.34,85.24Z"/></g></svg>